<mxfile host="65bd71144e">
    <diagram id="xQkSMaA5Cl420elOjYhl" name="Page-1">
        <mxGraphModel dx="2102" dy="667" grid="1" gridSize="10" guides="1" tooltips="1" connect="1" arrows="1" fold="1" page="1" pageScale="1" pageWidth="1100" pageHeight="850" math="0" shadow="0">
            <root>
                <mxCell id="0"/>
                <mxCell id="1" parent="0"/>
                <mxCell id="9" style="html=1;rounded=1;curved=0;strokeWidth=1.1811;shape=link;" parent="1" source="2" target="5" edge="1">
                    <mxGeometry relative="1" as="geometry">
                        <mxPoint x="140" y="220" as="targetPoint"/>
                    </mxGeometry>
                </mxCell>
                <mxCell id="2" value="/" style="sketch=0;pointerEvents=1;shadow=0;html=1;strokeColor=default;fillColor=#505050;labelPosition=center;verticalLabelPosition=bottom;verticalAlign=top;outlineConnect=0;align=center;shape=mxgraph.office.devices.laptop;strokeWidth=0;" parent="1" vertex="1">
                    <mxGeometry x="380" y="140" width="150" height="160" as="geometry"/>
                </mxCell>
                <mxCell id="3" value="Connection" style="rounded=1;whiteSpace=wrap;html=1;" parent="1" vertex="1">
                    <mxGeometry x="20" y="20" width="120" height="60" as="geometry"/>
                </mxCell>
                <mxCell id="5" value="" style="verticalLabelPosition=bottom;verticalAlign=top;html=1;shadow=0;dashed=0;strokeWidth=1;shape=mxgraph.ios.iBgFlat;strokeColor=#18211b;fillColor=#1f2923;" parent="1" vertex="1">
                    <mxGeometry x="-70" y="135" width="100" height="170" as="geometry"/>
                </mxCell>
                <mxCell id="12" value="- Connect USBC from device to computer&lt;div&gt;- Device loads server on connection with web app&lt;/div&gt;&lt;div&gt;- User connects to server via browser&lt;/div&gt;" style="rounded=0;whiteSpace=wrap;html=1;fontFamily=Helvetica;fontSize=11;fontColor=default;labelBackgroundColor=default;" parent="1" vertex="1">
                    <mxGeometry y="340" width="490" height="160" as="geometry"/>
                </mxCell>
                <mxCell id="15" value="Page" style="html=1;whiteSpace=wrap;strokeColor=none;fillColor=#0079D6;labelPosition=center;verticalLabelPosition=middle;verticalAlign=top;align=center;fontSize=12;outlineConnect=0;spacingTop=-6;fontColor=#FFFFFF;sketch=0;shape=mxgraph.sitemap.page;fontFamily=Helvetica;labelBackgroundColor=default;" parent="1" vertex="1">
                    <mxGeometry x="40" y="565" width="410" height="210" as="geometry"/>
                </mxCell>
                <mxCell id="16" value="" style="image;aspect=fixed;html=1;points=[];align=center;fontSize=12;image=img/lib/azure2/general/Search.svg;fontFamily=Helvetica;fontColor=default;labelBackgroundColor=default;" parent="1" vertex="1">
                    <mxGeometry x="110" y="650" width="39.38" height="40" as="geometry"/>
                </mxCell>
                <mxCell id="17" value="- Configuration allows user to provide a target file path for document discovery (only pdf support)&lt;div&gt;&lt;font color=&quot;#000000&quot;&gt;- After user specifies path, then vector database is either updated or created&lt;/font&gt;&lt;/div&gt;" style="rounded=0;whiteSpace=wrap;html=1;fontFamily=Helvetica;fontSize=11;fontColor=default;labelBackgroundColor=default;" parent="1" vertex="1">
                    <mxGeometry x="30" y="840" width="490" height="130" as="geometry"/>
                </mxCell>
            </root>
        </mxGraphModel>
    </diagram>
</mxfile>